<?xml version="1.0" encoding="UTF-8"?>
<svg xmlns="http://www.w3.org/2000/svg" width="1200" height="630" viewBox="0 0 1200 630" fill="none">
  <rect width="1200" height="630" fill="#101216"/>
  <rect x="1" y="1" width="1198" height="628" rx="24" stroke="#2A2F37" stroke-width="2"/>
  <rect x="80" y="80" width="120" height="120" rx="26" fill="#191C21" stroke="#2A2F37" stroke-width="2"/>
  <rect x="98" y="118" width="84" height="14" rx="4" fill="#00C073"/>
  <rect x="98" y="136" width="84" height="14" rx="4" fill="#E8A93C"/>
  <rect x="98" y="154" width="84" height="14" rx="4" fill="#FF4D52"/>
  <rect x="98" y="98" width="84" height="20" rx="5" fill="#0F69FF"/>
  <rect x="137" y="98" width="21" height="84" rx="5" fill="#0F69FF"/>
  <text x="230" y="148" fill="#F0F2F5" font-family="system-ui, -apple-system, BlinkMacSystemFont, Segoe UI, sans-serif" font-size="72" font-weight="700" letter-spacing="-1">Tausta</text>
  <text x="230" y="205" fill="#8C96A3" font-family="system-ui, -apple-system, BlinkMacSystemFont, Segoe UI, sans-serif" font-size="34" font-weight="400">Ticker background - valuation, range, peers, and street pulse</text>
  <rect x="230" y="250" width="310" height="44" rx="22" fill="#191C21" stroke="#2A2F37"/>
  <text x="252" y="279" fill="#6EA8FF" font-family="system-ui, sans-serif" font-size="20" font-weight="600">12 valuation strategies</text>
  <rect x="560" y="250" width="250" height="44" rx="22" fill="#191C21" stroke="#2A2F37"/>
  <text x="582" y="279" fill="#6EA8FF" font-family="system-ui, sans-serif" font-size="20" font-weight="600">Peer comparison</text>
  <rect x="830" y="250" width="210" height="44" rx="22" fill="#191C21" stroke="#2A2F37"/>
  <text x="852" y="279" fill="#6EA8FF" font-family="system-ui, sans-serif" font-size="20" font-weight="600">Street pulse</text>
  <line x1="80" y1="360" x2="1120" y2="360" stroke="#2A2F37" stroke-width="2"/>
  <text x="80" y="420" fill="#8C96A3" font-family="system-ui, sans-serif" font-size="24">Live Yahoo Finance data</text>
  <text x="80" y="460" fill="#8C96A3" font-family="system-ui, sans-serif" font-size="24">Under / fair / over verdicts from rule-based screens</text>
  <text x="80" y="540" fill="#6EA8FF" font-family="system-ui, sans-serif" font-size="22" font-weight="600">Educational tool - not financial advice</text>
  <rect x="930" y="500" width="190" height="50" rx="12" fill="#0F69FF"/>
  <text x="962" y="533" fill="#FFFFFF" font-family="system-ui, sans-serif" font-size="22" font-weight="600">Analyze a ticker</text>
</svg>
